# xmcd
#
# Track frame offsets:
#	150
#	12336
#	30711
#	47521
#	59279
#	72938
#	84387
#	100931
#	114371
#	129060
#	142528
#	157875
#
# Disc length: 2287 seconds
# Revision: 0
# Processed by: cddbd v1.5.2PL0 Copyright (c) Steve Scherf et al.
# Submitted via: dBpowerAMP V12.0
#
DISCID=8608ed0c
DTITLE=Hot Rize - When I'm Free
DYEAR=2014
DGENRE=Country
TTITLE0=Western Skies
TTITLE1=Blue Is Fallin'
TTITLE2=Come Away
TTITLE3=Sky Rider
TTITLE4=You Were On My Mind This Morning
TTITLE5=Doggone
TTITLE6=A Cowboy's Life
TTITLE7=I Never Met A One Like You
TTITLE8=Burn It Down
TTITLE9=Glory In The Meeting House
TTITLE10=I Am The Road
TTITLE11=Clary Mae
EXTD=
EXTT0=
EXTT1=
EXTT2=
EXTT3=
EXTT4=
EXTT5=
EXTT6=
EXTT7=
EXTT8=
EXTT9=
EXTT10=
EXTT11=
PLAYORDER=
